<?xml version="1.0" encoding="utf-8"?>
<!-- Generator: Adobe Illustrator 23.0.5, SVG Export Plug-In . SVG Version: 6.00 Build 0)  -->
<svg version="1.1" id="Layer_1" xmlns="http://www.w3.org/2000/svg" xmlns:xlink="http://www.w3.org/1999/xlink" x="0px" y="0px"
	 viewBox="0 0 100 100" style="enable-background:new 0 0 100 100;" xml:space="preserve">
<style type="text/css">
	.st0{fill:#595959;}
</style>
<g>
	<rect x="-1" class="st0" width="17" height="17"/>
</g>
<g>
	<rect x="33" class="st0" width="17" height="17"/>
</g>
<g>
	<rect x="67" class="st0" width="17" height="17"/>
</g>
<g>
	<rect x="16" y="17" class="st0" width="17" height="17"/>
</g>
<g>
	<rect x="50" y="17" class="st0" width="17" height="17"/>
</g>
<g>
	<rect x="84" y="17" class="st0" width="17" height="17"/>
</g>
<g>
	<rect x="-1" y="34" class="st0" width="17" height="17"/>
</g>
<g>
	<rect x="33" y="34" class="st0" width="17" height="17"/>
</g>
<g>
	<rect x="67" y="34" class="st0" width="17" height="17"/>
</g>
<g>
	<rect x="16" y="51" class="st0" width="17" height="17"/>
</g>
<g>
	<rect x="50" y="51" class="st0" width="17" height="17"/>
</g>
<g>
	<rect x="84" y="51" class="st0" width="17" height="17"/>
</g>
<g>
	<rect x="-1" y="68" class="st0" width="17" height="17"/>
</g>
<g>
	<rect x="33" y="68" class="st0" width="17" height="17"/>
</g>
<g>
	<rect x="67" y="68" class="st0" width="17" height="17"/>
</g>
<g>
	<rect x="16" y="85" class="st0" width="17" height="17"/>
</g>
<g>
	<rect x="50" y="85" class="st0" width="17" height="17"/>
</g>
<g>
	<rect x="84" y="85" class="st0" width="17" height="17"/>
</g>
</svg>
